<?xml version="1.0" encoding="UTF-8"?>
<svg id="_레이어_1" data-name="레이어 1" xmlns="http://www.w3.org/2000/svg" viewBox="0 0 1366 768">
  <defs>
    <style>
      .cls-1 {
        fill: #4d5761;
      }

      .cls-1, .cls-2, .cls-3, .cls-4, .cls-5, .cls-6, .cls-7, .cls-8, .cls-9, .cls-10, .cls-11, .cls-12, .cls-13, .cls-14, .cls-15, .cls-16, .cls-17, .cls-18, .cls-19, .cls-20, .cls-21, .cls-22, .cls-23, .cls-24, .cls-25, .cls-26, .cls-27, .cls-28, .cls-29, .cls-30, .cls-31, .cls-32, .cls-33, .cls-34, .cls-35, .cls-36, .cls-37, .cls-38, .cls-39, .cls-40, .cls-41, .cls-42, .cls-43, .cls-44, .cls-45, .cls-46 {
        stroke-width: 0px;
      }

      .cls-2 {
        fill: #8f8d8f;
      }

      .cls-3 {
        fill: #c7c5c9;
      }

      .cls-4 {
        fill: #bdbeb1;
      }

      .cls-5 {
        fill: #adafb1;
      }

      .cls-6 {
        fill: #7b7b7c;
      }

      .cls-7 {
        fill: #919191;
      }

      .cls-8 {
        fill: #8f8d90;
      }

      .cls-9 {
        fill: #83635d;
      }

      .cls-47 {
        opacity: .51;
      }

      .cls-10 {
        fill: #313549;
      }

      .cls-11 {
        fill: #727272;
      }

      .cls-12 {
        fill: #7f7e81;
      }

      .cls-13 {
        fill: #c1c0c1;
      }

      .cls-14 {
        fill: #a6a5a6;
      }

      .cls-15 {
        fill: #010001;
      }

      .cls-16 {
        opacity: .64;
      }

      .cls-16, .cls-33 {
        fill: #99989a;
      }

      .cls-17 {
        fill: #7c7b7c;
      }

      .cls-18 {
        fill: #8b8a8c;
      }

      .cls-19 {
        fill: #adacad;
      }

      .cls-20 {
        fill: #c1c4b6;
      }

      .cls-21 {
        fill: #78698e;
      }

      .cls-22 {
        fill: #b8bab9;
      }

      .cls-23 {
        fill: #7e8093;
      }

      .cls-24 {
        fill: #787a8f;
      }

      .cls-25 {
        fill: #251f34;
      }

      .cls-26 {
        fill: #aeadaf;
      }

      .cls-27 {
        fill: #595959;
      }

      .cls-28 {
        fill: #808386;
      }

      .cls-29 {
        fill: #b2b0b2;
      }

      .cls-30 {
        fill: #a7a6a8;
      }

      .cls-31 {
        fill: #bdbcbe;
      }

      .cls-32 {
        fill: #464749;
      }

      .cls-34 {
        fill: #afaeb0;
      }

      .cls-35 {
        fill: #c9c9c9;
      }

      .cls-36 {
        fill: #c8c7c8;
      }

      .cls-37 {
        fill: #929482;
        opacity: .3;
      }

      .cls-38 {
        fill: #525153;
      }

      .cls-39 {
        fill: #9a999b;
      }

      .cls-40 {
        fill: #969baa;
      }

      .cls-41 {
        fill: #69686a;
      }

      .cls-42 {
        fill: #d2d1d3;
      }

      .cls-43 {
        fill: #a57c90;
      }

      .cls-44 {
        fill: #c1bfc1;
      }

      .cls-45 {
        fill: #373e54;
      }

      .cls-46 {
        fill: #8c8b8d;
      }
    </style>
  </defs>
  <g>
    <polygon class="cls-42" points="242.62 167.2 71.72 188.48 93.99 414.8 242.62 369.93 242.62 167.2"/>
    <polygon class="cls-39" points="1256.91 597.5 1160.91 709.84 88.91 416.4 242.62 369.93 1256.91 597.5"/>
    <polygon class="cls-29" points="1278.87 295.46 1245.56 594.95 242.62 369.93 242.62 167.2 1278.87 295.46"/>
    <polygon class="cls-38" points="1299.55 294.18 1206.02 355.29 1160.91 709.84 1256.91 597.5 1299.55 294.18"/>
    <polygon class="cls-34" points="71.72 188.48 93.17 409.08 1144.74 690.27 1186.96 353.93 1206.02 355.29 1160.91 709.84 88.91 416.4 66.45 187.29 71.72 188.48"/>
    <polygon class="cls-35" points="66.45 187.29 71.72 188.48 242.62 167.2 1278.87 295.46 1186.96 353.93 1206.02 355.29 1299.55 294.18 242.74 164.65 66.45 187.29"/>
  </g>
  <g>
    <g>
      <g>
        <polygon class="cls-37" points="987.3 395.29 987.3 322.52 1043.69 295.2 1043.69 364.37 987.3 395.29"/>
        <polygon class="cls-37" points="886.03 306.18 886.03 378.95 987.3 395.29 987.3 322.52 886.03 306.18"/>
        <polygon class="cls-37" points="942.42 278.86 942.42 348.03 886.03 378.95 886.03 306.18 942.42 278.86"/>
        <polygon class="cls-37" points="942.42 278.86 942.42 348.03 1043.69 364.37 1043.69 295.2 942.42 278.86"/>
      </g>
      <polygon class="cls-13" points="942.42 278.86 942.42 288.74 1043.69 306.18 1043.69 295.2 942.42 278.86"/>
      <polygon class="cls-41" points="886.03 306.18 886.03 317.16 942.42 288.74 942.42 278.86 886.03 306.18"/>
      <polygon class="cls-41" points="1043.69 295.2 1043.69 306.18 987.3 333.5 987.3 322.52 1043.69 295.2"/>
      <polygon class="cls-13" points="987.3 333.5 886.03 317.16 886.03 306.18 987.3 322.52 987.3 333.5"/>
    </g>
    <g>
      <path class="cls-20" d="m1043.69,364.37v16.62c48.3,3.65,86.3,42.37,86.3,89.59,0,49.64-41.99,89.87-93.78,89.87s-93.78-40.24-93.78-89.87v-122.55l101.27,16.34Z"/>
      <g>
        <path class="cls-33" d="m979.81,591.37c51.8,0,93.78-40.24,93.78-89.87s-38-85.94-86.3-89.59l56.39-30.91c48.3,3.65,86.3,42.37,86.3,89.59,0,49.64-41.99,89.87-93.78,89.87l-56.39,30.91Z"/>
        <path class="cls-33" d="m1128.76,485.16s-12.94,101.62-148.95,106.21"/>
      </g>
      <polygon class="cls-41" points="1043.69 381 987.3 411.91 987.3 395.29 1043.69 364.37 1043.69 381"/>
      <polygon class="cls-4" points="942.42 348.03 886.03 378.95 886.03 493.59 942.42 451.2 942.42 348.03"/>
      <path class="cls-31" d="m987.3,395.29v16.62c48.3,3.65,86.3,42.37,86.3,89.59,0,49.64-41.99,89.87-93.78,89.87s-93.78-40.24-93.78-89.87v-122.55l101.27,16.34Z"/>
      <g>
        <ellipse class="cls-11" cx="975.85" cy="503.48" rx="44.94" ry="43.4"/>
        <path class="cls-43" d="m1003.15,464.83c-24.7-18.14-56.95-16.19-72.03,4.34-15.08,20.53-7.27,51.88,17.43,70.02,24.7,18.14,56.95,16.19,72.03-4.34,15.08-20.53,7.27-51.88-17.43-70.02Zm7.69,62.87c-11.8,16.07-37.02,17.59-56.35,3.4s-25.43-38.72-13.63-54.78c11.8-16.07,37.02-17.59,56.35-3.4,19.33,14.19,25.43,38.72,13.63,54.78Z"/>
      </g>
    </g>
  </g>
  <g>
    <g>
      <g>
        <path class="cls-46" d="m268.48,243.27v8.95c-26.72,0-48.38,30.17-48.38,67.38s21.66,67.38,48.38,67.38,48.38-30.17,48.38-67.38v-70.57l-48.38-5.76Z"/>
        <path class="cls-31" d="m268.48,386.98l-81.48,26.08s129.87,12.43,129.87-93.46l-48.38,67.38Z"/>
        <path class="cls-31" d="m187,413.06c26.72,0,48.38-30.17,48.38-67.38v-70.57l81.48-26.08v70.57c0,37.21-21.66,67.38-48.38,67.38l-81.48,26.08Z"/>
        <path class="cls-46" d="m187,269.35v8.95c-26.72,0-48.38,30.17-48.38,67.38s21.66,67.38,48.38,67.38,48.38-30.17,48.38-67.38v-70.57l-48.38-5.76Z"/>
        <ellipse class="cls-11" cx="187.41" cy="347.43" rx="23.65" ry="32.13"/>
        <path class="cls-43" d="m187,306.89c-16.98,0-30.74,17.31-30.74,38.66s13.76,38.66,30.74,38.66,30.74-17.31,30.74-38.66-13.76-38.66-30.74-38.66Zm0,66c-12.01,0-21.74-12.24-21.74-27.34s9.74-27.34,21.74-27.34,21.74,12.24,21.74,27.34-9.74,27.34-21.74,27.34Z"/>
      </g>
      <polyline class="cls-46" points="268.48 243.27 187 269.35 187 278.3 187.41 299.73 235.38 304.07 235.38 275.11 268.48 264.51 268.48 243.27"/>
    </g>
    <g>
      <g class="cls-47">
        <polygon class="cls-40" points="268.48 203.75 316.87 208.09 316.87 249.03 268.48 243.27 268.48 203.75"/>
        <polygon class="cls-40" points="187 269.35 187 221.22 235.38 225.7 235.38 275.11 187 269.35"/>
        <polygon class="cls-40" points="235.38 225.7 316.87 208.09 316.87 249.03 235.38 275.11 235.38 225.7"/>
        <polygon class="cls-40" points="268.48 207.04 268.48 243.27 187 269.35 187 221.22 268.48 203.75 268.48 207.04"/>
      </g>
      <g>
        <polygon class="cls-2" points="268.48 203.75 316.87 208.09 316.87 217.53 268.48 212.47 268.48 203.75"/>
        <polygon class="cls-3" points="187 230.43 268.48 212.47 268.48 203.75 187 221.22 187 230.43"/>
        <polygon class="cls-2" points="187 221.22 187 230.43 235.38 235.92 235.38 225.7 187 221.22"/>
        <polygon class="cls-3" points="235.38 235.92 316.87 217.53 316.87 208.09 235.38 225.7 235.38 235.92"/>
      </g>
    </g>
  </g>
  <g>
    <g>
      <polygon class="cls-8" points="278.36 231.71 295.55 232.91 307.64 463.37 289.55 458.61 278.36 231.71"/>
      <polygon class="cls-12" points="278.36 231.71 435.9 201.95 452.01 203.92 295.55 232.91 278.36 231.71"/>
      <polygon class="cls-22" points="307.64 463.37 452.01 414.8 452.01 203.92 295.55 232.91 307.64 463.37"/>
      <polygon class="cls-21" points="307.64 245.16 319.38 448.57 452.01 404.48 452.01 217.43 307.64 245.16"/>
    </g>
    <g>
      <g>
        <polygon class="cls-44" points="289.78 398.73 294.07 398.98 294.47 408.53 290.24 407.97 289.78 398.73"/>
        <polygon class="cls-44" points="297.18 399.41 301.46 399.67 301.87 409.21 297.64 408.65 297.18 399.41"/>
        <polygon class="cls-44" points="290.42 412.04 294.71 412.29 295.11 421.83 290.88 421.28 290.42 412.04"/>
        <polygon class="cls-44" points="297.87 413.44 302.15 413.69 302.56 423.23 298.32 422.68 297.87 413.44"/>
        <polygon class="cls-44" points="291.44 426.22 295.72 426.47 296.13 436.02 291.9 435.46 291.44 426.22"/>
        <polygon class="cls-44" points="298.89 427.11 303.17 427.36 303.58 436.91 299.34 436.35 298.89 427.11"/>
        <polygon class="cls-44" points="291.8 439.73 296.08 439.99 296.49 449.53 292.26 448.97 291.8 439.73"/>
        <polygon class="cls-44" points="299.53 440.96 303.81 441.22 304.22 450.76 299.98 450.2 299.53 440.96"/>
        <polygon class="cls-44" points="288.08 360.37 292.36 360.62 292.77 370.16 288.53 369.61 288.08 360.37"/>
        <polygon class="cls-44" points="295.52 361.76 299.81 362.02 300.21 371.56 295.98 371.01 295.52 361.76"/>
        <polygon class="cls-44" points="288.46 372.79 292.74 373.05 293.15 382.59 288.91 382.03 288.46 372.79"/>
        <polygon class="cls-44" points="296.13 374.19 300.42 374.44 300.82 383.99 296.59 383.43 296.13 374.19"/>
        <polygon class="cls-44" points="289.09 385.42 293.38 385.68 293.79 395.22 289.55 394.67 289.09 385.42"/>
        <polygon class="cls-44" points="296.54 386.82 300.83 387.07 301.23 396.61 297 396.06 296.54 386.82"/>
      </g>
      <g>
        <polygon class="cls-44" points="280.79 241.68 285.07 241.93 285.48 251.47 281.24 250.92 280.79 241.68"/>
        <polygon class="cls-44" points="288.87 243.07 293.16 243.33 293.56 252.87 289.33 252.32 288.87 243.07"/>
        <polygon class="cls-44" points="281.42 255.7 285.71 255.95 286.12 265.5 281.88 264.94 281.42 255.7"/>
        <polygon class="cls-44" points="289.51 257.1 293.79 257.35 294.2 266.9 289.97 266.34 289.51 257.1"/>
        <polygon class="cls-44" points="281.8 269.55 286.09 269.8 286.49 279.35 282.26 278.79 281.8 269.55"/>
        <polygon class="cls-44" points="289.89 270.95 294.17 271.2 294.58 280.75 290.34 280.19 289.89 270.95"/>
        <polygon class="cls-44" points="282.44 283.57 286.72 283.83 287.13 293.37 282.9 292.81 282.44 283.57"/>
        <polygon class="cls-44" points="290.53 284.97 294.81 285.22 295.22 294.77 290.98 294.21 290.53 284.97"/>
        <polygon class="cls-44" points="283.38 298.14 287.67 298.4 288.08 307.94 283.84 307.39 283.38 298.14"/>
        <polygon class="cls-44" points="291.13 299.54 295.41 299.8 295.82 309.34 291.58 308.78 291.13 299.54"/>
        <polygon class="cls-44" points="284.15 312.57 288.43 312.82 288.84 322.36 284.6 321.81 284.15 312.57"/>
        <polygon class="cls-44" points="291.8 313.2 296.08 313.45 296.49 323 292.26 322.44 291.8 313.2"/>
        <polygon class="cls-44" points="284.79 326.81 289.07 327.06 289.48 336.6 285.24 336.05 284.79 326.81"/>
        <polygon class="cls-44" points="292.87 327.48 297.16 327.73 297.56 337.28 293.33 336.72 292.87 327.48"/>
      </g>
    </g>
  </g>
  <g>
    <g>
      <polygon class="cls-24" points="476.44 230.78 344.7 255.72 393.72 325.53 515.5 293.07 476.44 230.78"/>
      <polygon class="cls-10" points="344.7 255.72 342.4 269.74 390.14 336.48 393.72 325.53 344.7 255.72"/>
      <polygon class="cls-25" points="390.14 336.48 512.7 304.79 515.5 293.07 393.72 325.53 390.14 336.48"/>
    </g>
    <g>
      <polygon class="cls-23" points="390.14 336.48 512.7 304.79 520.1 313.19 395.38 344.58 390.14 336.48"/>
      <polygon class="cls-45" points="390.14 336.48 395.38 344.58 350.65 392.46 346.06 385.42 390.14 336.48"/>
      <polygon class="cls-15" points="350.65 392.46 395.38 344.58 520.1 313.19 484.61 354.09 350.65 392.46"/>
    </g>
    <g>
      <polygon class="cls-5" points="350.65 392.46 484.61 354.09 525.46 416.28 399.08 462.35 350.65 392.46"/>
      <polygon class="cls-1" points="350.65 392.46 347.5 403.65 393.72 470.27 399.08 462.35 350.65 392.46"/>
      <polygon class="cls-32" points="399.08 462.35 393.72 470.27 522.14 425.07 525.46 416.28 399.08 462.35"/>
    </g>
  </g>
  <g>
    <g>
      <g>
        <polygon class="cls-30" points="597.5 265.35 597.5 543.05 473.65 510.01 470.02 245.67 597.5 265.35"/>
        <polygon class="cls-46" points="597.5 543.05 703.35 477.46 708.82 232.62 597.5 265.35 597.5 543.05"/>
        <polygon class="cls-28" points="470.02 245.67 597.5 265.35 708.82 232.62 591.3 215.25 470.02 245.67"/>
      </g>
      <g>
        <g>
          <polygon class="cls-36" points="483.98 263.2 483.98 284.31 525.68 290.1 525.68 269.67 483.98 263.2"/>
          <polygon class="cls-2" points="483.98 284.31 490.71 264.25 483.98 263.2 483.98 284.31"/>
          <polygon class="cls-27" points="525.68 272.74 489.78 266.86 483.98 263.2 525.68 269.67 525.68 272.74"/>
          <polygon class="cls-16" points="525.68 285.4 485.79 278.93 483.98 284.31 525.68 290.1 525.68 285.4"/>
        </g>
        <g>
          <polygon class="cls-36" points="542.42 273.52 542.42 294.63 584.12 300.42 584.12 279.99 542.42 273.52"/>
          <polygon class="cls-2" points="542.42 294.63 549.16 274.57 542.42 273.52 542.42 294.63"/>
          <polygon class="cls-27" points="584.12 283.06 548.22 277.18 542.42 273.52 584.12 279.99 584.12 283.06"/>
          <polygon class="cls-16" points="584.12 295.71 544.23 289.25 542.42 294.63 584.12 300.42 584.12 295.71"/>
        </g>
        <g>
          <polygon class="cls-36" points="483.76 293.84 483.76 314.95 525.46 320.74 525.46 300.31 483.76 293.84"/>
          <polygon class="cls-2" points="483.76 314.95 490.49 294.89 483.76 293.84 483.76 314.95"/>
          <polygon class="cls-27" points="525.46 303.37 489.56 297.5 483.76 293.84 525.46 300.31 525.46 303.37"/>
          <polygon class="cls-16" points="525.46 316.03 485.57 309.57 483.76 314.95 525.46 320.74 525.46 316.03"/>
        </g>
        <g>
          <polygon class="cls-36" points="542.2 305.16 542.2 326.27 583.9 332.06 583.9 311.63 542.2 305.16"/>
          <polygon class="cls-2" points="542.2 326.27 548.94 306.21 542.2 305.16 542.2 326.27"/>
          <polygon class="cls-27" points="583.9 314.69 548 308.82 542.2 305.16 583.9 311.63 583.9 314.69"/>
          <polygon class="cls-16" points="583.9 327.35 544.01 320.88 542.2 326.27 583.9 332.06 583.9 327.35"/>
        </g>
        <g>
          <polygon class="cls-36" points="483.76 322.48 483.76 343.58 525.46 349.37 525.46 328.95 483.76 322.48"/>
          <polygon class="cls-2" points="483.76 343.58 490.49 323.52 483.76 322.48 483.76 343.58"/>
          <polygon class="cls-27" points="525.46 332.01 489.56 326.14 483.76 322.48 525.46 328.95 525.46 332.01"/>
          <polygon class="cls-16" points="525.46 344.67 485.57 338.2 483.76 343.58 525.46 349.37 525.46 344.67"/>
        </g>
        <g>
          <polygon class="cls-36" points="542.2 334.8 542.2 355.9 583.9 361.69 583.9 341.27 542.2 334.8"/>
          <polygon class="cls-2" points="542.2 355.9 548.94 335.84 542.2 334.8 542.2 355.9"/>
          <polygon class="cls-27" points="583.9 344.33 548 338.46 542.2 334.8 583.9 341.27 583.9 344.33"/>
          <polygon class="cls-16" points="583.9 356.99 544.01 350.52 542.2 355.9 583.9 361.69 583.9 356.99"/>
        </g>
        <g>
          <polygon class="cls-36" points="484.49 350.57 484.49 371.67 526.19 377.46 526.19 357.04 484.49 350.57"/>
          <polygon class="cls-2" points="484.49 371.67 491.22 351.61 484.49 350.57 484.49 371.67"/>
          <polygon class="cls-27" points="526.19 360.1 490.29 354.23 484.49 350.57 526.19 357.04 526.19 360.1"/>
          <polygon class="cls-16" points="526.19 372.76 486.3 366.29 484.49 371.67 526.19 377.46 526.19 372.76"/>
        </g>
        <g>
          <polygon class="cls-36" points="542.93 363.89 542.93 384.99 584.63 390.78 584.63 370.36 542.93 363.89"/>
          <polygon class="cls-2" points="542.93 384.99 549.67 364.93 542.93 363.89 542.93 384.99"/>
          <polygon class="cls-27" points="584.63 373.42 548.73 367.55 542.93 363.89 584.63 370.36 584.63 373.42"/>
          <polygon class="cls-16" points="584.63 386.08 544.74 379.61 542.93 384.99 584.63 390.78 584.63 386.08"/>
        </g>
        <g>
          <polygon class="cls-36" points="484.27 381.21 484.27 402.31 525.97 408.1 525.97 387.67 484.27 381.21"/>
          <polygon class="cls-2" points="484.27 402.31 491 382.25 484.27 381.21 484.27 402.31"/>
          <polygon class="cls-27" points="525.97 390.74 490.07 384.87 484.27 381.21 525.97 387.67 525.97 390.74"/>
          <polygon class="cls-16" points="525.97 403.4 486.08 396.93 484.27 402.31 525.97 408.1 525.97 403.4"/>
        </g>
        <g>
          <polygon class="cls-36" points="542.71 393.53 542.71 414.63 584.42 420.42 584.42 399.99 542.71 393.53"/>
          <polygon class="cls-2" points="542.71 414.63 549.45 394.57 542.71 393.53 542.71 414.63"/>
          <polygon class="cls-27" points="584.42 403.06 548.51 397.19 542.71 393.53 584.42 399.99 584.42 403.06"/>
          <polygon class="cls-16" points="584.42 415.72 544.52 409.25 542.71 414.63 584.42 420.42 584.42 415.72"/>
        </g>
        <g>
          <polygon class="cls-36" points="484.27 409.84 484.27 430.95 525.97 436.74 525.97 416.31 484.27 409.84"/>
          <polygon class="cls-2" points="484.27 430.95 491 410.89 484.27 409.84 484.27 430.95"/>
          <polygon class="cls-27" points="525.97 419.37 490.07 413.5 484.27 409.84 525.97 416.31 525.97 419.37"/>
          <polygon class="cls-16" points="525.97 432.03 486.08 425.57 484.27 430.95 525.97 436.74 525.97 432.03"/>
        </g>
        <g>
          <polygon class="cls-36" points="542.71 423.16 542.71 444.27 584.42 450.06 584.42 429.63 542.71 423.16"/>
          <polygon class="cls-2" points="542.71 444.27 549.45 424.21 542.71 423.16 542.71 444.27"/>
          <polygon class="cls-27" points="584.42 432.69 548.51 426.82 542.71 423.16 584.42 429.63 584.42 432.69"/>
          <polygon class="cls-16" points="584.42 445.35 544.52 438.88 542.71 444.27 584.42 450.06 584.42 445.35"/>
        </g>
        <g>
          <polygon class="cls-36" points="483.76 440.23 483.76 461.34 525.46 467.13 525.46 446.7 483.76 440.23"/>
          <polygon class="cls-2" points="483.76 461.34 490.49 441.28 483.76 440.23 483.76 461.34"/>
          <polygon class="cls-27" points="525.46 449.76 489.56 443.89 483.76 440.23 525.46 446.7 525.46 449.76"/>
          <polygon class="cls-16" points="525.46 462.42 485.57 455.96 483.76 461.34 525.46 467.13 525.46 462.42"/>
        </g>
        <g>
          <polygon class="cls-36" points="542.2 453.55 542.2 474.66 583.9 480.45 583.9 460.02 542.2 453.55"/>
          <polygon class="cls-2" points="542.2 474.66 548.94 454.6 542.2 453.55 542.2 474.66"/>
          <polygon class="cls-27" points="583.9 463.08 548 457.21 542.2 453.55 583.9 460.02 583.9 463.08"/>
          <polygon class="cls-16" points="583.9 475.74 544.01 469.28 542.2 474.66 583.9 480.45 583.9 475.74"/>
        </g>
        <g>
          <polygon class="cls-36" points="483.76 468.87 483.76 489.97 525.46 495.76 525.46 475.34 483.76 468.87"/>
          <polygon class="cls-2" points="483.76 489.97 490.49 469.91 483.76 468.87 483.76 489.97"/>
          <polygon class="cls-27" points="525.46 478.4 489.56 472.53 483.76 468.87 525.46 475.34 525.46 478.4"/>
          <polygon class="cls-16" points="525.46 491.06 485.57 484.59 483.76 489.97 525.46 495.76 525.46 491.06"/>
        </g>
        <g>
          <polygon class="cls-36" points="542.2 485.19 542.2 506.29 583.9 512.08 583.9 491.66 542.2 485.19"/>
          <polygon class="cls-2" points="542.2 506.29 548.94 486.23 542.2 485.19 542.2 506.29"/>
          <polygon class="cls-27" points="583.9 494.72 548 488.85 542.2 485.19 583.9 491.66 583.9 494.72"/>
          <polygon class="cls-16" points="583.9 507.38 544.01 500.91 542.2 506.29 583.9 512.08 583.9 507.38"/>
        </g>
      </g>
    </g>
    <g>
      <polygon class="cls-19" points="735.55 230.86 575.47 208.7 470.02 235.76 630.11 257.93 735.55 230.86"/>
      <polygon class="cls-17" points="575.47 191.97 470.02 217.08 470.02 235.76 575.47 208.7 575.47 191.97"/>
      <polygon class="cls-7" points="575.47 191.97 735.55 213.6 735.55 230.86 575.47 208.7 575.47 191.97"/>
      <polygon class="cls-17" points="542.42 226.2 542.42 245.79 647.87 218.72 647.87 201.75 542.42 226.2"/>
      <polygon class="cls-17" points="555.22 227.81 555.22 247.56 659.49 220.34 659.37 203.3 555.22 227.81"/>
      <polygon class="cls-14" points="659.37 203.3 647.87 201.75 542.42 226.2 555.22 227.81 659.37 203.3"/>
      <polygon class="cls-14" points="630.11 237.25 470.02 217.08 470.02 235.76 630.11 257.93 630.11 237.25"/>
      <polygon class="cls-17" points="630.11 237.25 630.11 257.93 735.55 230.86 735.55 213.6 630.11 237.25"/>
    </g>
  </g>
  <g>
    <polyline class="cls-18" points="867.64 257.93 840.74 254.52 702.23 295.84 729.43 300.82"/>
    <g>
      <polygon class="cls-6" points="723.3 574.01 853.34 502.01 867.64 257.93 729.43 300.82 723.3 574.01"/>
      <polygon class="cls-9" points="734.02 552.82 738.62 313.84 866.71 273.78 854.15 488.24 734.02 552.82"/>
    </g>
    <g>
      <polygon class="cls-26" points="729.43 300.82 723.3 574.01 695.98 567.12 702.23 295.84 729.43 300.82"/>
      <g>
        <g>
          <polygon class="cls-11" points="701.43 457.43 701.89 446.47 705.83 447 705.35 457.89 701.43 457.43"/>
          <polygon class="cls-11" points="701.43 474.81 701.89 463.85 705.83 464.38 705.35 475.26 701.43 474.81"/>
          <polygon class="cls-11" points="701 492.19 701.46 481.22 705.4 481.75 704.92 492.64 701 492.19"/>
          <polygon class="cls-11" points="700.49 509.56 700.95 498.6 704.89 499.13 704.41 510.02 700.49 509.56"/>
          <polygon class="cls-11" points="699.97 528.36 700.43 517.4 704.36 517.93 703.88 528.82 699.97 528.36"/>
          <polygon class="cls-11" points="699.86 546.43 700.32 535.46 704.25 535.99 703.78 546.88 699.86 546.43"/>
          <polygon class="cls-11" points="699.05 564.22 699.51 553.26 703.45 553.79 702.97 564.67 699.05 564.22"/>
          <polygon class="cls-11" points="713.55 459.63 714.01 448.67 717.95 449.2 717.47 460.09 713.55 459.63"/>
          <polygon class="cls-11" points="713.55 477.01 714.01 466.05 717.95 466.58 717.47 477.46 713.55 477.01"/>
          <polygon class="cls-11" points="713.13 494.39 713.58 483.42 717.52 483.95 717.04 494.84 713.13 494.39"/>
          <polygon class="cls-11" points="712.61 511.76 713.07 500.8 717.01 501.33 716.53 512.22 712.61 511.76"/>
          <polygon class="cls-11" points="712.09 530.57 712.55 519.6 716.48 520.13 716.01 531.02 712.09 530.57"/>
          <polygon class="cls-11" points="711.98 548.63 712.44 537.66 716.37 538.19 715.9 549.08 711.98 548.63"/>
          <polygon class="cls-11" points="711.18 566.42 711.63 555.46 715.57 555.99 715.09 566.88 711.18 566.42"/>
        </g>
        <g>
          <polygon class="cls-11" points="704.82 312.62 705.28 301.66 709.21 302.19 708.73 313.08 704.82 312.62"/>
          <polygon class="cls-11" points="704.82 332 705.28 321.04 709.21 321.57 708.73 332.45 704.82 332"/>
          <polygon class="cls-11" points="704.39 350.8 704.85 339.84 708.78 340.37 708.31 351.26 704.39 350.8"/>
          <polygon class="cls-11" points="703.88 369.61 704.34 358.64 708.27 359.17 707.79 370.06 703.88 369.61"/>
          <polygon class="cls-11" points="703.35 388.41 703.81 377.45 707.75 377.98 707.27 388.86 703.35 388.41"/>
          <polygon class="cls-11" points="703.24 406.47 703.7 395.51 707.64 396.04 707.16 406.92 703.24 406.47"/>
          <polygon class="cls-11" points="702.44 424.26 702.9 413.3 706.83 413.83 706.36 424.72 702.44 424.26"/>
          <polygon class="cls-11" points="717.32 314.71 717.78 303.75 721.72 304.28 721.24 315.17 717.32 314.71"/>
          <polygon class="cls-11" points="717.32 334.09 717.78 323.13 721.72 323.66 721.24 334.55 717.32 334.09"/>
          <polygon class="cls-11" points="716.9 352.9 717.35 341.93 721.29 342.46 720.81 353.35 716.9 352.9"/>
          <polygon class="cls-11" points="716.38 371.7 716.84 360.74 720.78 361.27 720.3 372.15 716.38 371.7"/>
          <polygon class="cls-11" points="715.86 390.5 716.32 379.54 720.25 380.07 719.78 390.96 715.86 390.5"/>
          <polygon class="cls-11" points="715.75 408.56 716.21 397.6 720.14 398.13 719.67 409.02 715.75 408.56"/>
          <polygon class="cls-11" points="714.19 425.94 714.65 414.98 718.58 415.51 718.1 426.4 714.19 425.94"/>
        </g>
      </g>
    </g>
  </g>
</svg>